<svg width="202" height="202" viewBox="0 0 202 202" fill="none" xmlns="http://www.w3.org/2000/svg">
<path d="M179.781 169.098C161.225 189.258 134.675 202 105.156 202C49.3787 202 4 156.692 4 101C4 45.308 49.3787 6.43668e-06 105.156 6.43668e-06C146.283 6.43668e-06 181.733 24.6463 197.529 59.9122C198.075 61.2555 198.015 61.7295 197.507 63.0488L162.871 152.979H149.613C147.072 152.909 145.807 151.452 144.916 148.716L127.701 95.8545L108.599 152.979H95.1373C93.4347 152.979 91.988 152.472 90.5893 148.694L67.4573 86.1933C65.276 80.6099 64.2587 78.8912 62.08 78.3187C60.1907 77.6038 55.888 78.8872 54.58 79.4583C53.828 79.8324 53.4067 79.67 53.1253 78.7434L47.5347 64.5012C47.38 63.8263 47.4427 63.4335 48.0093 62.9929C51.0613 60.5593 57.436 58.2015 64.484 58.2015C75.5293 58.2015 81.7787 64.215 85.7027 74.8081L101.477 120.336L120.581 59.9189H133.515C134.328 59.9189 134.791 60.3223 135.007 60.9866L153.425 120.766L174.737 60.8708C174.972 60.2198 174.951 59.9682 174.667 59.4636C160.483 35.8864 134.649 20.0573 105.156 20.0573C60.456 20.0573 24.0893 56.3683 24.0893 101C24.0893 145.632 60.456 181.943 105.156 181.943C121.249 181.943 136.228 177.185 148.879 169.117C149.303 168.847 150.056 168.473 150.839 168.473H179.572C179.995 168.473 180.104 168.748 179.781 169.098Z" fill="#FF5850"/>
</svg>
